<svg width="24" height="24" viewBox="0 0 24 24" fill="none" xmlns="http://www.w3.org/2000/svg">
<path d="M8.36145 1.95604C8.07837 1.14908 7.14212 0.626596 6.17574 0.732617L1.79235 1.21185C0.925366 1.30884 0.261982 1.88735 0.174619 2.62552C-1.02613 12.7712 7.72686 22.1488 19.7227 23.5686C20.5955 23.6719 21.4203 23.2663 21.7375 22.5803L23.3283 19.1092C23.6794 18.344 23.2979 17.4547 22.4334 17.0322L17.9728 14.841C17.2154 14.4686 16.2762 14.5528 15.6715 15.051L13.4733 16.8409C10.2214 15.0713 7.73427 12.4067 6.46132 9.32851L9.04736 7.95874C9.766 7.57806 10.0851 6.83405 9.83453 6.12658L8.36096 1.96014L8.36145 1.95604Z" fill="#003566"/>
</svg>
