<svg width="32" height="38" viewBox="0 0 32 38" fill="none" xmlns="http://www.w3.org/2000/svg">
<path d="M17.975 36.3777C22.25 31.6993 32 20.3604 32 13.9914C32 6.26698 24.8333 0 16 0C7.16667 0 0 6.26698 0 13.9914C0 20.3604 9.75 31.6993 14.025 36.3777C15.05 37.4926 16.95 37.4926 17.975 36.3777ZM16 9.32761C17.4145 9.32761 18.771 9.81897 19.7712 10.6936C20.7714 11.5682 21.3333 12.7545 21.3333 13.9914C21.3333 15.2283 20.7714 16.4146 19.7712 17.2892C18.771 18.1638 17.4145 18.6552 16 18.6552C14.5855 18.6552 13.229 18.1638 12.2288 17.2892C11.2286 16.4146 10.6667 15.2283 10.6667 13.9914C10.6667 12.7545 11.2286 11.5682 12.2288 10.6936C13.229 9.81897 14.5855 9.32761 16 9.32761Z" fill="#2B5AB2"/>
</svg>
