<svg width="53" height="49" viewBox="0 0 53 49" fill="none" xmlns="http://www.w3.org/2000/svg">
<path d="M0 24.5603C0 31.0421 2.79195 37.2584 7.76167 41.8418C12.7314 46.4251 19.4718 49 26.5 49C33.5282 49 40.2686 46.4251 45.2383 41.8418C50.208 37.2584 53 31.0421 53 24.5603C53 18.0785 50.208 11.8621 45.2383 7.27877C40.2686 2.69543 33.5282 0.120544 26.5 0.120544C19.4718 0.120544 12.7314 2.69543 7.76167 7.27877C2.79195 11.8621 0 18.0785 0 24.5603ZM24.9473 36.1119C23.9742 37.0093 22.4008 37.0093 21.4381 36.1119C20.4754 35.2145 20.465 33.7634 21.4381 32.8755L30.4439 24.5698L21.4381 16.2641C20.465 15.3667 20.465 13.9156 21.4381 13.0278C22.4111 12.1399 23.9846 12.1304 24.9473 13.0278L35.7129 22.9373C36.6859 23.8347 36.6859 25.2858 35.7129 26.1737L24.9473 36.1119Z" fill="white"/>
</svg>
