<svg width="14" height="14" viewBox="0 0 14 14" fill="none" xmlns="http://www.w3.org/2000/svg">
<path d="M5.41808 1.3482C5.28387 0.892076 4.77347 0.571344 4.22662 0.597413L1.74628 0.714736C1.25562 0.739163 0.864562 1.03693 0.792542 1.44249C-0.197346 7.01665 4.43519 12.5016 11.1384 13.692C11.6261 13.7786 12.1026 13.582 12.3023 13.213L13.3046 11.3458C13.5259 10.9342 13.3388 10.4292 12.8657 10.1662L10.4247 8.80302C10.0102 8.57138 9.47934 8.58634 9.12378 8.8416L7.8319 9.75799C6.05768 8.66898 4.74136 7.11045 4.12079 5.36404L5.6178 4.69326C6.03381 4.50683 6.23637 4.10586 6.11735 3.70589L5.41768 1.35045L5.41808 1.3482Z" fill="white"/>
</svg>
