<svg width="56" height="54" viewBox="0 0 56 54" fill="none" xmlns="http://www.w3.org/2000/svg">
<path d="M56 27.0102C56 19.8802 53.05 13.0422 47.799 8.00052C42.548 2.95885 35.4261 0.126465 28 0.126465C20.5739 0.126465 13.452 2.95885 8.20101 8.00052C2.94999 13.0422 0 19.8802 0 27.0102C0 34.1402 2.94999 40.9781 8.20101 46.0198C13.452 51.0615 20.5739 53.8939 28 53.8939C35.4261 53.8939 42.548 51.0615 47.799 46.0198C53.05 40.9781 56 34.1402 56 27.0102ZM29.6406 14.3034C30.6688 13.3163 32.3312 13.3163 33.3484 14.3034C34.3656 15.2906 34.3766 16.8868 33.3484 17.8634L23.8328 26.9997L33.3484 36.1359C34.3766 37.1231 34.3766 38.7193 33.3484 39.6959C32.3203 40.6725 30.6578 40.683 29.6406 39.6959L18.2656 28.7954C17.2375 27.8083 17.2375 26.2121 18.2656 25.2354L29.6406 14.3034Z" fill="white"/>
</svg>
